<svg xmlns="http://www.w3.org/2000/svg" width="48" height="48" viewBox="0 0 48 48" fill="none" xmlns:c2pa="http://c2pa.org/manifest"><metadata><c2pa:manifest>AAAWgmp1bWIAAAAeanVtZGMycGEAEQAQgAAAqgA4m3EDYzJwYQAAABZcanVtYgAAAEdqdW1kYzJtYQARABCAAACqADibcQN1cm46YzJwYTozYThmMWRiMy0yNmQ1LTQ3MDktYWFkYS04YTFlNmM4ODdhZmQAAAADl2p1bWIAAAApanVtZGMyYXMAEQAQgAAAqgA4m3EDYzJwYS5hc3NlcnRpb25zAAAAALxqdW1iAAAARGp1bWRjYm9yABEAEIAAAKoAOJtxE2MycGEuaW5ncmVkaWVudC52MwAAAAAYYzJzaDcL0civPW0kLQHePRH27YAAAABwY2JvcqNpZGM6Zm9ybWF0bWltYWdlL3N2Zyt4bWxqaW5zdGFuY2VJRHgseG1wOmlpZDo0MWVjOWU5Ny03ZjRjLTQ0YWMtODk5NS0wM2Q3NjZiYzViNjJscmVsYXRpb25zaGlwaHBhcmVudE9mAAAB4mp1bWIAAABBanVtZGNib3IAEQAQgAAAqgA4m3ETYzJwYS5hY3Rpb25zLnYyAAAAABhjMnNoIKHiITJWq8IZqg6NB2YtpwAAAZljYm9yomdhY3Rpb25zgqJmYWN0aW9ua2MycGEub3BlbmVkanBhcmFtZXRlcnOha2luZ3JlZGllbnRzgaJjdXJseC1zZWxmI2p1bWJmPWMycGEuYXNzZXJ0aW9ucy9jMnBhLmluZ3JlZGllbnQudjNkaGFzaFggtcB2k8drkTcMX2aTFoMqfU3KShskMTkgs9IllKacesCkZmFjdGlvbngdY29tLmFudGhyb3BpYy5jbGF1ZGUucHJvdmlkZWRqcGFyYW1ldGVyc6F4H2NvbS5hbnRocm9waWMub3JpZ2luLWNvbmZpZGVuY2VndW5rbm93bmtkZXNjcmlwdGlvbnhmQ2xhdWRlIHByb3ZpZGVkIHRoaXMgZmlsZSBhdCB0aGUgcmVxdWVzdCBvZiBhIHVzZXIgYW5kIG1heSBoYXZlIGNyZWF0ZWQgb3IgbW9kaWZpZWQgdGhlIGZpbGUgY29udGVudHMubXNvZnR3YXJlQWdlbnShZG5hbWVmQ2xhdWRlcmFsbEFjdGlvbnNJbmNsdWRlZPUAAADIanVtYgAAAEBqdW1kY2JvcgARABCAAACqADibcRNjMnBhLmhhc2guZGF0YQAAAAAYYzJzaCE/4WeTW6qhioB/hOsTQ/EAAACAY2JvcqVjYWxnZnNoYTI1NmNwYWRNAAAAAAAAAAAAAAAAAGRoYXNoWCCVeAPm/oCQZPww88LIdxYumiNWuqNqJPG8xQQ3E+1Pi2RuYW1lbmp1bWJmIG1hbmlmZXN0amV4Y2x1c2lvbnOBomVzdGFydBieZmxlbmd0aBkeBAAAAj5qdW1iAAAAJ2p1bWRjMmNsABEAEIAAAKoAOJtxA2MycGEuY2xhaW0udjIAAAACD2Nib3KlY2FsZ2ZzaGEyNTZpc2lnbmF0dXJleE1zZWxmI2p1bWJmPS9jMnBhL3VybjpjMnBhOjNhOGYxZGIzLTI2ZDUtNDcwOS1hYWRhLThhMWU2Yzg4N2FmZC9jMnBhLnNpZ25hdHVyZWppbnN0YW5jZUlEeCx4bXA6aWlkOjdkMmMxMTg4LTg2YjQtNDJmMy04NTdlLWE2ZjYxNzVlNmQ0M3JjcmVhdGVkX2Fzc2VydGlvbnODomN1cmx4LXNlbGYjanVtYmY9YzJwYS5hc3NlcnRpb25zL2MycGEuaW5ncmVkaWVudC52M2RoYXNoWCC1wHaTx2uRNwxfZpMWgyp9TcpKGyQxOSCz0iWUppx6wKJjdXJseCpzZWxmI2p1bWJmPWMycGEuYXNzZXJ0aW9ucy9jMnBhLmFjdGlvbnMudjJkaGFzaFggVTK/bOutDGz6nYc92Gx7qSHhbj086YAaiuH4JTMrh36iY3VybHgpc2VsZiNqdW1iZj1jMnBhLmFzc2VydGlvbnMvYzJwYS5oYXNoLmRhdGFkaGFzaFggQlHNiC0Hb+8r8vWWEM2BhLNHalKUsUwLmHFMX2aqkwB0Y2xhaW1fZ2VuZXJhdG9yX2luZm+jZG5hbWVvQW50aHJvcGljIEZpbGVzZ3ZlcnNpb25lMS4wLjBrc3BlY1ZlcnNpb25lMi40LjAAABA4anVtYgAAAChqdW1kYzJjcwARABCAAACqADibcQNjMnBhLnNpZ25hdHVyZQAAABAIY2JvctKEWQISogEmGCFZAgowggIGMIIBjaADAgECAhRA5aAK7sI50L64g/oGQgU9Z1UTADAKBggqhkjOPQQDAzBJMRcwFQYDVQQKEw5BbnRocm9waWMsIFBCQzEuMCwGA1UEAxMlQW50aHJvcGljIENvbnRlbnQgQ3JlZGVudGlhbHMgUm9vdCBDQTAeFw0yNjA4MDcxODQzNTZaFw0yODA4MDYxOTQzNTZaMEQxFzAVBgNVBAoTDkFudGhyb3BpYywgUEJDMSkwJwYDVQQDEyBBbnRocm9waWMgQ2xhdWRlIENvbnRlbnQgU2lnbmluZzBZMBMGByqGSM49AgEGCCqGSM49AwEHA0IABJh6CmvLUBgFFNU0vUKlOVtE6djd17L5SuwX0LemFisBM3dkd/3cyjxFA3Qo5S46fX0/ihY0VZ7mfb9KF703t5OjWDBWMA4GA1UdDwEB/wQEAwIHgDAVBgNVHSUEDjAMBgorBgEEAYPoXgIBMAwGA1UdEwEB/wQCMAAwHwYDVR0jBBgwFoAUzlHiBIFOZFsj+OPEz5o+nMHXXMIwCgYIKoZIzj0EAwMDZwAwZAIwMXMdFJ4BetLLVY7ORuE9noqbbAZOZn/aArXyTwFAZfKrPzxF2vPoJNf1+UCdg1XGAjBwX1zd9WGqYkqmL5SFqw1QySjr1zJfpJM9+1rdDwSPLMOPOjKuiXjoU/pUUeG9RwmhY3BhZFkNngAAAAAAAAAAAAAAAAAAAAAAAAAAAAAAAAAAAAAAAAAAAAAAAAAAAAAAAAAAAAAAAAAAAAAAAAAAAAAAAAAAAAAAAAAAAAAAAAAAAAAAAAAAAAAAAAAAAAAAAAAAAAAAAAAAAAAAAAAAAAAAAAAAAAAAAAAAAAAAAAAAAAAAAAAAAAAAAAAAAAAAAAAAAAAAAAAAAAAAAAAAAAAAAAAAAAAAAAAAAAAAAAAAAAAAAAAAAAAAAAAAAAAAAAAAAAAAAAAAAAAAAAAAAAAAAAAAAAAAAAAAAAAAAAAAAAAAAAAAAAAAAAAAAAAAAAAAAAAAAAAAAAAAAAAAAAAAAAAAAAAAAAAAAAAAAAAAAAAAAAAAAAAAAAAAAAAAAAAAAAAAAAAAAAAAAAAAAAAAAAAAAAAAAAAAAAAAAAAAAAAAAAAAAAAAAAAAAAAAAAAAAAAAAAAAAAAAAAAAAAAAAAAAAAAAAAAAAAAAAAAAAAAAAAAAAAAAAAAAAAAAAAAAAAAAAAAAAAAAAAAAAAAAAAAAAAAAAAAAAAAAAAAAAAAAAAAAAAAAAAAAAAAAAAAAAAAAAAAAAAAAAAAAAAAAAAAAAAAAAAAAAAAAAAAAAAAAAAAAAAAAAAAAAAAAAAAAAAAAAAAAAAAAAAAAAAAAAAAAAAAAAAAAAAAAAAAAAAAAAAAAAAAAAAAAAAAAAAAAAAAAAAAAAAAAAAAAAAAAAAAAAAAAAAAAAAAAAAAAAAAAAAAAAAAAAAAAAAAAAAAAAAAAAAAAAAAAAAAAAAAAAAAAAAAAAAAAAAAAAAAAAAAAAAAAAAAAAAAAAAAAAAAAAAAAAAAAAAAAAAAAAAAAAAAAAAAAAAAAAAAAAAAAAAAAAAAAAAAAAAAAAAAAAAAAAAAAAAAAAAAAAAAAAAAAAAAAAAAAAAAAAAAAAAAAAAAAAAAAAAAAAAAAAAAAAAAAAAAAAAAAAAAAAAAAAAAAAAAAAAAAAAAAAAAAAAAAAAAAAAAAAAAAAAAAAAAAAAAAAAAAAAAAAAAAAAAAAAAAAAAAAAAAAAAAAAAAAAAAAAAAAAAAAAAAAAAAAAAAAAAAAAAAAAAAAAAAAAAAAAAAAAAAAAAAAAAAAAAAAAAAAAAAAAAAAAAAAAAAAAAAAAAAAAAAAAAAAAAAAAAAAAAAAAAAAAAAAAAAAAAAAAAAAAAAAAAAAAAAAAAAAAAAAAAAAAAAAAAAAAAAAAAAAAAAAAAAAAAAAAAAAAAAAAAAAAAAAAAAAAAAAAAAAAAAAAAAAAAAAAAAAAAAAAAAAAAAAAAAAAAAAAAAAAAAAAAAAAAAAAAAAAAAAAAAAAAAAAAAAAAAAAAAAAAAAAAAAAAAAAAAAAAAAAAAAAAAAAAAAAAAAAAAAAAAAAAAAAAAAAAAAAAAAAAAAAAAAAAAAAAAAAAAAAAAAAAAAAAAAAAAAAAAAAAAAAAAAAAAAAAAAAAAAAAAAAAAAAAAAAAAAAAAAAAAAAAAAAAAAAAAAAAAAAAAAAAAAAAAAAAAAAAAAAAAAAAAAAAAAAAAAAAAAAAAAAAAAAAAAAAAAAAAAAAAAAAAAAAAAAAAAAAAAAAAAAAAAAAAAAAAAAAAAAAAAAAAAAAAAAAAAAAAAAAAAAAAAAAAAAAAAAAAAAAAAAAAAAAAAAAAAAAAAAAAAAAAAAAAAAAAAAAAAAAAAAAAAAAAAAAAAAAAAAAAAAAAAAAAAAAAAAAAAAAAAAAAAAAAAAAAAAAAAAAAAAAAAAAAAAAAAAAAAAAAAAAAAAAAAAAAAAAAAAAAAAAAAAAAAAAAAAAAAAAAAAAAAAAAAAAAAAAAAAAAAAAAAAAAAAAAAAAAAAAAAAAAAAAAAAAAAAAAAAAAAAAAAAAAAAAAAAAAAAAAAAAAAAAAAAAAAAAAAAAAAAAAAAAAAAAAAAAAAAAAAAAAAAAAAAAAAAAAAAAAAAAAAAAAAAAAAAAAAAAAAAAAAAAAAAAAAAAAAAAAAAAAAAAAAAAAAAAAAAAAAAAAAAAAAAAAAAAAAAAAAAAAAAAAAAAAAAAAAAAAAAAAAAAAAAAAAAAAAAAAAAAAAAAAAAAAAAAAAAAAAAAAAAAAAAAAAAAAAAAAAAAAAAAAAAAAAAAAAAAAAAAAAAAAAAAAAAAAAAAAAAAAAAAAAAAAAAAAAAAAAAAAAAAAAAAAAAAAAAAAAAAAAAAAAAAAAAAAAAAAAAAAAAAAAAAAAAAAAAAAAAAAAAAAAAAAAAAAAAAAAAAAAAAAAAAAAAAAAAAAAAAAAAAAAAAAAAAAAAAAAAAAAAAAAAAAAAAAAAAAAAAAAAAAAAAAAAAAAAAAAAAAAAAAAAAAAAAAAAAAAAAAAAAAAAAAAAAAAAAAAAAAAAAAAAAAAAAAAAAAAAAAAAAAAAAAAAAAAAAAAAAAAAAAAAAAAAAAAAAAAAAAAAAAAAAAAAAAAAAAAAAAAAAAAAAAAAAAAAAAAAAAAAAAAAAAAAAAAAAAAAAAAAAAAAAAAAAAAAAAAAAAAAAAAAAAAAAAAAAAAAAAAAAAAAAAAAAAAAAAAAAAAAAAAAAAAAAAAAAAAAAAAAAAAAAAAAAAAAAAAAAAAAAAAAAAAAAAAAAAAAAAAAAAAAAAAAAAAAAAAAAAAAAAAAAAAAAAAAAAAAAAAAAAAAAAAAAAAAAAAAAAAAAAAAAAAAAAAAAAAAAAAAAAAAAAAAAAAAAAAAAAAAAAAAAAAAAAAAAAAAAAAAAAAAAAAAAAAAAAAAAAAAAAAAAAAAAAAAAAAAAAAAAAAAAAAAAAAAAAAAAAAAAAAAAAAAAAAAAAAAAAAAAAAAAAAAAAAAAAAAAAAAAAAAAAAAAAAAAAAAAAAAAAAAAAAAAAAAAAAAAAAAAAAAAAAAAAAAAAAAAAAAAAAAAAAAAAAAAAAAAAAAAAAAAAAAAAAAAAAAAAAAAAAAAAAAAAAAAAAAAAAAAAAAAAAAAAAAAAAAAAAAAAAAAAAAAAAAAAAAAAAAAAAAAAAAAAAAAAAAAAAAAAAAAAAAAAAAAAAAAAAAAAAAAAAAAAAAAAAAAAAAAAAAAAAAAAAAAAAAAAAAAAAAAAAAAAAAAAAAAAAAAAAAAAAAAAAAAAAAAAAAAAAAAAAAAAAAAAAAAAAAAAAAAAAAAAAAAAAAAAAAAAAAAAAAAAAAAAAAAAAAAAAAAAAAAAAAAAAAAAAAAAAAAAAAAAAAAAAAAAAAAAAAAAAAAAAAAAAAAAAAAAAAAAAAAAAAAAAAAAAAAAAAAAAAAAAAAAAAAAAAAAAAAAAAAAAAAAAAAAAAAAAAAAAAAAAAAAAAAAAAAAAAAAAAAAAAAAAAAAAAAAAAAAAAAAAAAAAAAAAAAAAAAAAAAAAAAAAAAAAAAAAAAAAAAAAAAAAAAAAAAAAAAAAAAAAAAAAAAAAAAAAAAAAAAAAAAAAAAAAAAAAAAAAAAAAAAAAAAAAAAAAAAAAAAAAAAAAAAAAAAAAAAAAAAAAAAAAAAAAAAAAAAAAAAAAAAAAAAAAAAAAAAAAAAAAAAAAAAAAAAAAAAAAAAAAAAAAAAAAAAAAAAAAAAAAAAAAAAAAAAAAAAAAAAAAAAAAAAAAAAAAAAAAAAAAAAAAAAAAAAAAAAAAAAAAAAAAAAAAAAAAAAAAAAAAAAAAAAAAAAAAAAAAAAAAAAAAAAAAAAAAAAAAAAAAAAAAAAAAAAAAAAAAAAAAAAAAAAAAAAAAAAAAAAAAAAAAAAAAAAAAAAAAAAAAAAAAAAAAAAAAAAAAAAAAAAAAAAAAAAAAAAAAAAAAAAAAAAAAAAAAAAAAAAAAAAAAAAAAAAAAAAAAAAAAAAAAAAAAAAAAAAAAAAAAAAAAAAAAAAAAAAAAAAAAAAAAAAAAAAAAAAAAAAAAAAAAAAAAAAAAAAAAAAAAAAAAAAAAAAAAAAAAAAAAAAAAAAAAAAAAAAAAAAAAAAAAAAAAAAAAAAAAAAAAAAAAAAAAAAAAAAAAAAAAAAAAAAAAAAAAAAAAAAAAAAAAAAAAAAAAAAAAAAAAAAAAAAAAAAAAAAAAAAAAAAAAAAAAAAAAAAAAAAAAAAAAAAAAAAAAAAAAAAAAAAAAAAAAAAAAAAAAAAAAAAAAAAAAAAAAAAAAAAAAAAAAAAAAAAAAAAAAAAAAAAAAAAAAAAAAAAAAAAAAAAAAAAAAAAAAAAAAAAAAAAAAAAAAAAAAAAAAAAAAAAAAAAAAAAAAAAAAAAAAAAAAAAAAAAAAAAAAAAAAAAAAAAAAAAAAAAAAAAAAAAAAAAAAAAAAAAAAAAAAAAAAAAAAAAAAAAAAAAAAAAAAAAAAAAAAAAAAAAAAAAAAAAAAAAAAAAAAAAAAAAAAAAAAAAAAAAAAAAAAAAAAAAAAAAAAAAAAAAAAAAAAAAAAAAAAAAAAAAAAAAAAAAAAAAAAAAAAAAAAAAAAAAAAAAAAAAAAAAAAAAAAAAAAAAAAAAAAAAAAAAAAAAAAAAAAAAAAAAAAAAAAAAAAAAAAAAAAAAAAAAAAAAAAAAAAAAAAAAAAAAAAAAAAAAAAAAAAAAAAAAAAAAAAAAAAAAAAAAAAAAAAAAAAAAAAAAAAAAAAAAAAAAAAAAAAAAAAAAAAAAAAAAAAAAAAAAAAAAAAAAAAAAAAAAAAAAAAAAAAPZYQLpSKss/tdxNkWoEmvEwVX8tMzE8o8L/yXNY9EHMDvPUOBpAx2xDxcouSPzRI7a4TnYRQj3bYUFMfQ/NLkaGHSo=</c2pa:manifest></metadata><g><g transform="matrix(1 0 0 1 0 0)"><defs><clipPath id="c47"><path d="M0 0H48V48H0Z"></path></clipPath></defs><g clip-path="url(#c47)"><g transform="matrix(1 0 0 1 24 15.2625732421875)"><path d="M-0.656 10.237C-0.656 10.6 -0.362 10.894 0 10.894C0.362 10.894 0.656 10.6 0.656 10.237L0 10.237L-0.656 10.237ZM0.656 0C0.656 -0.362 0.362 -0.656 0 -0.656C-0.362 -0.656 -0.656 -0.362 -0.656 0L0 0L0.656 0ZM0 10.237L0.656 10.237L0.656 0L0 0L-0.656 0L-0.656 10.237L0 10.237Z" fill="rgba(0,215,255,1)" fill-rule="nonzero"></path></g><g transform="matrix(1 0 0 1 20.219999313354492 7.22991943359375)"><path d="M0 0L0 -1.102C-0.609 -1.102 -1.102 -0.609 -1.102 0L0 0ZM7.56 0L8.663 0C8.663 -0.609 8.169 -1.102 7.56 -1.102L7.56 0ZM7.56 7.56L7.56 8.662C8.169 8.662 8.663 8.169 8.663 7.56L7.56 7.56ZM0 7.56L-1.102 7.56C-1.102 8.169 -0.609 8.662 0 8.662L0 7.56ZM0 0L0 1.102L7.56 1.102L7.56 0L7.56 -1.102L0 -1.102L0 0ZM7.56 0L6.458 0L6.458 7.56L7.56 7.56L8.663 7.56L8.663 0L7.56 0ZM7.56 7.56L7.56 6.457L0 6.457L0 7.56L0 8.662L7.56 8.662L7.56 7.56ZM0 7.56L1.102 7.56L1.102 0L0 0L-1.102 0L-1.102 7.56L0 7.56Z" fill="rgba(0,215,255,1)" fill-rule="nonzero"></path></g><g transform="matrix(1 0 0 1 22.346250534057617 19.04241943359375)"><path d="M1.654 3.307C2.567 3.307 3.308 2.567 3.308 1.654C3.308 0.74 2.567 0 1.654 0C0.74 0 0 0.74 0 1.654C0 2.567 0.74 3.307 1.654 3.307Z" fill="rgba(0,215,255,1)" fill-rule="nonzero"></path></g><g transform="matrix(1 0 0 1 15.134064674377441 25.5)"><path d="M9.194 0.568C9.508 0.387 9.615 -0.014 9.434 -0.328C9.253 -0.642 8.852 -0.75 8.538 -0.568L8.866 0L9.194 0.568ZM-0.328 4.55C-0.642 4.732 -0.75 5.133 -0.568 5.447C-0.387 5.761 0.014 5.868 0.328 5.687L0 5.119L-0.328 4.55ZM8.866 0L8.538 -0.568L-0.328 4.55L0 5.119L0.328 5.687L9.194 0.568L8.866 0Z" fill="rgba(0,215,255,1)" fill-rule="nonzero"></path></g><g transform="matrix(0.8660253882408142 0.5 -0.5 0.8660253882408142 10.067715644836426 27.58135986328125)"><path d="M0 0L0 -1.102C-0.609 -1.102 -1.102 -0.609 -1.102 0L0 0ZM7.56 0L8.663 0C8.663 -0.609 8.169 -1.102 7.56 -1.102L7.56 0ZM7.56 7.56L7.56 8.663C8.169 8.663 8.663 8.169 8.663 7.56L7.56 7.56ZM0 7.56L-1.102 7.56C-1.102 8.169 -0.609 8.663 0 8.663L0 7.56ZM0 0L0 1.102L7.56 1.102L7.56 0L7.56 -1.102L0 -1.102L0 0ZM7.56 0L6.458 0L6.458 7.56L7.56 7.56L8.663 7.56L8.663 0L7.56 0ZM7.56 7.56L7.56 6.458L0 6.458L0 7.56L0 8.663L7.56 8.663L7.56 7.56ZM0 7.56L1.102 7.56L1.102 0L0 0L-1.102 0L-1.102 7.56L0 7.56Z" fill="rgba(0,215,255,1)" fill-rule="nonzero"></path></g><g transform="matrix(1 0 0 1 18.186080932617188 26.2481689453125)"><path d="M1.654 3.307C2.567 3.307 3.307 2.567 3.307 1.654C3.307 0.74 2.567 0 1.654 0C0.74 0 0 0.74 0 1.654C0 2.567 0.74 3.307 1.654 3.307Z" fill="rgba(0,215,255,1)" fill-rule="nonzero"></path></g><g transform="matrix(1 0 0 1 24 25.5)"><path d="M0.328 -0.568C0.014 -0.75 -0.387 -0.642 -0.568 -0.328C-0.75 -0.014 -0.642 0.387 -0.328 0.568L0 0L0.328 -0.568ZM8.538 5.687C8.852 5.868 9.253 5.761 9.434 5.447C9.615 5.133 9.508 4.732 9.194 4.55L8.866 5.119L8.538 5.687ZM0 0L-0.328 0.568L8.538 5.687L8.866 5.119L9.194 4.55L0.328 -0.568L0 0Z" fill="rgba(0,215,255,1)" fill-rule="nonzero"></path></g><g transform="matrix(0.8660253882408142 -0.5 0.5 0.8660253882408142 31.3851318359375 31.36138916015625)"><path d="M0 0L0 -1.102C-0.609 -1.102 -1.102 -0.609 -1.102 0L0 0ZM7.56 0L8.662 0C8.662 -0.609 8.169 -1.102 7.56 -1.102L7.56 0ZM7.56 7.56L7.56 8.663C8.169 8.663 8.662 8.169 8.662 7.56L7.56 7.56ZM0 7.56L-1.102 7.56C-1.102 8.169 -0.609 8.663 0 8.663L0 7.56ZM0 0L0 1.102L7.56 1.102L7.56 0L7.56 -1.102L0 -1.102L0 0ZM7.56 0L6.457 0L6.457 7.56L7.56 7.56L8.662 7.56L8.662 0L7.56 0ZM7.56 7.56L7.56 6.458L0 6.458L0 7.56L0 8.663L7.56 8.663L7.56 7.56ZM0 7.56L1.102 7.56L1.102 0L0 0L-1.102 0L-1.102 7.56L0 7.56Z" fill="rgba(0,215,255,1)" fill-rule="nonzero"></path></g><g transform="matrix(1 0 0 1 26.506420135498047 26.2481689453125)"><path d="M1.654 3.307C2.567 3.307 3.307 2.567 3.307 1.654C3.307 0.74 2.567 0 1.654 0C0.74 0 0 0.74 0 1.654C0 2.567 0.74 3.307 1.654 3.307Z" fill="rgba(0,215,255,1)" fill-rule="nonzero"></path></g></g></g></g></svg>